<?xml version="1.0" encoding="UTF-8" standalone="no"?>
<svg width="875px" height="165px" viewBox="0 0 875 165" version="1.1" xmlns="http://www.w3.org/2000/svg" xmlns:xlink="http://www.w3.org/1999/xlink" xmlns:sketch="http://www.bohemiancoding.com/sketch/ns">
    <!-- Generator: Sketch 3.0.3 (7891) - http://www.bohemiancoding.com/sketch -->
    <title>logo_fasterize_white</title>
    <desc>Created with Sketch.</desc>
    <defs></defs>
    <g id="Charte" stroke="none" stroke-width="1" fill="none" fill-rule="evenodd" sketch:type="MSPage">
        <g id="Logo_white" sketch:type="MSArtboardGroup" transform="translate(-239.000000, -198.000000)" fill="#FFFFFF">
            <g id="logo_fasterize_white" sketch:type="MSLayerGroup" transform="translate(239.000000, 198.000000)">
                <path d="M51.4913442,135 C47.3519408,135 44,131.642136 44,127.5 C44,123.366293 47.353989,120 51.4913442,120 L100.995648,120.000008 C98.5665016,115.248112 96.5846087,110.229603 95.1054873,105 L20.5067459,105 C16.3581988,105 13,101.642136 13,97.5 C13,93.3662928 16.3608846,90 20.5067459,90 L120.508656,90 C124.646011,90 128,86.6337072 128,82.5 C128,78.3578644 124.648059,75 120.508656,75 L36.4915527,75 C32.3625837,75 29,71.6421356 29,67.5 C29,63.3662928 32.3540824,60 36.4915527,60 L95.1054873,60 C96.5846079,54.7704 98.5664993,49.7518942 100.995644,45 L61.4994319,45 C57.3620753,45 54,41.6421356 54,37.5 C54,33.3662928 57.35761,30 61.4994319,30 L155.508656,30 C159.646011,30 163,26.6337072 163,22.5 C163,18.3578644 159.648059,15 155.508656,15 L131.49287,15 C127.357195,15 124,11.6421356 124,7.5 C124,3.36629279 127.354672,0 131.49287,0 L174.5,0 C220.063492,0 257,36.9365081 257,82.5 C257,128.063492 220.063492,165 174.5,165 L115.491226,165 C111.352663,165 108,161.642136 108,157.5 C108,153.366293 111.353936,150 115.491226,150 L129.492343,150 C133.638707,150 137,146.633707 137,142.5 C137,138.357864 133.645823,135 129.492343,135 L51.4913442,135 Z M82,7.5 C82,11.6421356 85.3649767,15 89.5030716,15 L101.496928,15 C105.64076,15 109,11.6337072 109,7.5 C109,3.35786438 105.635023,0 101.496928,0 L89.5030716,0 C85.3592396,0 82,3.36629279 82,7.5 Z M7.5,60 C3.35786438,60 0,63.3662928 0,67.5 C0,71.6421356 3.36629279,75 7.5,75 C11.6421356,75 15,71.6337072 15,67.5 C15,63.3578644 11.6337072,60 7.5,60 L7.5,60 Z M85.5,150 C81.3578644,150 78,153.366293 78,157.5 C78,161.642136 81.3662928,165 85.5,165 C89.6421356,165 93,161.633707 93,157.5 C93,153.357864 89.6337072,150 85.5,150 L85.5,150 Z M142,123 L156.198384,64.7866243 C159.402528,51.6496345 172.964323,41 186.477337,41 L214,41 L207.551966,56.3140803 C206.694839,58.3497576 204.207805,60 201.998121,60 L182.001783,60 C179.239374,60 176.366747,62.1530617 175.587249,64.8033519 L172,77 L192,77 L188.29831,89.3389651 C187.028989,93.5700378 182.422258,97 178.000113,97 L170.99254,97 C169.339806,97 167.652869,98.289344 167.220762,99.8943116 L164.279671,110.818366 C162.468359,117.546097 155.350816,123 148.39281,123 L142,123 Z" id="Oval-28" sketch:type="MSShapeGroup"></path>
                <path d="M356.992,75.244 L340.712,75.244 L340.712,134 L326.8,134 L326.8,75.244 L312.888,75.244 L312.888,63.848 L326.8,63.848 L326.8,49.196 C326.8,45.0519793 327.268662,41.2286842 328.206,37.726 C329.143338,34.2233158 330.672656,31.1893462 332.794,28.624 C334.915344,26.0586538 337.62865,24.0360074 340.934,22.556 C344.23935,21.0759926 348.259976,20.336 352.996,20.336 C356.350683,20.336 359.261321,20.6813299 361.728,21.372 L360.1,33.36 C359.014661,33.0639985 357.929339,32.8173343 356.844,32.62 C355.758661,32.4226657 354.52534,32.324 353.144,32.324 C350.479987,32.324 348.334008,32.792662 346.706,33.73 C345.077992,34.667338 343.820004,35.9253254 342.932,37.504 C342.043996,39.0826746 341.452001,40.8833232 341.156,42.906 C340.859999,44.9286768 340.712,47.0253225 340.712,49.196 L340.712,63.848 L356.992,63.848 L356.992,75.244 Z M413.528,88.564 C413.528,83.3346405 411.949349,79.4620126 408.792,76.946 C405.634651,74.4299874 401.441359,73.172 396.212,73.172 C392.265314,73.172 388.540684,73.936659 385.038,75.466 C381.535316,76.995341 378.600012,78.9439882 376.232,81.312 L368.832,72.432 C372.285351,69.1759837 376.503308,66.610676 381.486,64.736 C386.468692,62.861324 391.821305,61.924 397.544,61.924 C402.576025,61.924 406.941981,62.6393262 410.642,64.07 C414.342018,65.5006738 417.375988,67.449321 419.744,69.916 C422.112012,72.382679 423.887994,75.2933166 425.072,78.648 C426.256006,82.0026834 426.848,85.6039808 426.848,89.452 L426.848,120.088 C426.848,122.456012 426.921999,124.94732 427.07,127.562 C427.218001,130.17668 427.489331,132.322658 427.884,134 L415.304,134 C414.514663,130.645317 414.12,127.290683 414.12,123.936 L413.676,123.936 C411.110654,127.685352 407.879353,130.59599 403.982,132.668 C400.084647,134.74001 395.472027,135.776 390.144,135.776 C387.38132,135.776 384.495348,135.406004 381.486,134.666 C378.476652,133.925996 375.738679,132.717342 373.272,131.04 C370.805321,129.362658 368.758008,127.14268 367.13,124.38 C365.501992,121.61732 364.688,118.213354 364.688,114.168 C364.688,108.839973 366.118652,104.622016 368.98,101.514 C371.841348,98.4059845 375.590643,96.0380081 380.228,94.41 C384.865357,92.7819919 390.094638,91.7213358 395.916,91.228 C401.737362,90.7346642 407.60797,90.488 413.528,90.488 L413.528,88.564 Z M410.124,100.552 C406.670649,100.552 403.094018,100.699999 399.394,100.996 C395.693981,101.292001 392.339348,101.883996 389.33,102.772 C386.320652,103.660004 383.829343,104.991991 381.856,106.768 C379.882657,108.544009 378.896,110.911985 378.896,113.872 C378.896,115.94401 379.315329,117.67066 380.154,119.052 C380.992671,120.43334 382.10266,121.567996 383.484,122.456 C384.86534,123.344004 386.394658,123.960665 388.072,124.306 C389.749342,124.651335 391.475991,124.824 393.252,124.824 C399.764033,124.824 404.771316,122.875353 408.274,118.978 C411.776684,115.080647 413.528,110.17203 413.528,104.252 L413.528,100.552 L410.124,100.552 Z M487.972,81.608 C486.393325,79.0426538 484.173348,76.9460081 481.312,75.318 C478.450652,73.6899919 475.244018,72.876 471.692,72.876 C470.113325,72.876 468.534675,73.0486649 466.956,73.394 C465.377325,73.7393351 463.971339,74.2819963 462.738,75.022 C461.50466,75.7620037 460.518004,76.6993277 459.778,77.834 C459.037996,78.9686723 458.668,80.3746583 458.668,82.052 C458.668,85.0120148 459.999987,87.2073262 462.664,88.638 C465.328013,90.0686738 469.323973,91.3759941 474.652,92.56 C478.006683,93.3493373 481.114652,94.2866612 483.976,95.372 C486.837348,96.4573388 489.328656,97.8139919 491.45,99.442 C493.571344,101.070008 495.223994,103.018655 496.408,105.288 C497.592006,107.557345 498.184,110.221318 498.184,113.28 C498.184,117.424021 497.394675,120.926652 495.816,123.788 C494.237325,126.649348 492.14068,128.992658 489.526,130.818 C486.91132,132.643342 483.926683,133.950663 480.572,134.74 C477.217317,135.529337 473.764018,135.924 470.212,135.924 C464.883973,135.924 459.679359,134.88801 454.598,132.816 C449.516641,130.74399 445.298683,127.586688 441.944,123.344 L451.86,114.908 C453.734676,117.67068 456.32465,119.989324 459.63,121.864 C462.93535,123.738676 466.561314,124.676 470.508,124.676 C472.284009,124.676 473.985992,124.503335 475.614,124.158 C477.242008,123.812665 478.721993,123.245337 480.054,122.456 C481.386007,121.666663 482.446663,120.630673 483.236,119.348 C484.025337,118.065327 484.42,116.437343 484.42,114.464 C484.42,111.207984 482.866016,108.790675 479.758,107.212 C476.649984,105.633325 472.086697,104.15334 466.068,102.772 C463.699988,102.179997 461.307345,101.464671 458.89,100.626 C456.472655,99.7873291 454.277343,98.6280074 452.304,97.148 C450.330657,95.6679926 448.727339,93.8180111 447.494,91.598 C446.26066,89.3779889 445.644,86.6400163 445.644,83.384 C445.644,79.6346479 446.408659,76.4033469 447.938,73.69 C449.467341,70.9766531 451.465321,68.7566753 453.932,67.03 C456.398679,65.3033247 459.210651,64.0206709 462.368,63.182 C465.525349,62.3433291 468.781317,61.924 472.136,61.924 C477.168025,61.924 482.02731,62.9106568 486.714,64.884 C491.40069,66.8573432 495.026654,69.7186479 497.592,73.468 L487.972,81.608 Z M550.132,75.244 L531.484,75.244 L531.484,111.8 C531.484,116.042688 532.273325,119.076658 533.852,120.902 C535.430675,122.727342 537.946649,123.64 541.4,123.64 C542.682673,123.64 544.063993,123.492001 545.544,123.196 C547.024007,122.899999 548.355994,122.456003 549.54,121.864 L549.984,133.26 C548.306658,133.852003 546.456677,134.320665 544.434,134.666 C542.411323,135.011335 540.314678,135.184 538.144,135.184 C531.5333,135.184 526.476684,133.358685 522.974,129.708 C519.471316,126.057315 517.72,120.58137 517.72,113.28 L517.72,75.244 L504.252,75.244 L504.252,63.848 L517.72,63.848 L517.72,43.72 L531.484,43.72 L531.484,63.848 L550.132,63.848 L550.132,75.244 Z M629.904,98.332 L629.904,100.7 C629.904,101.489337 629.854667,102.278663 629.756,103.068 L574.108,103.068 C574.206667,106.028015 574.87266,108.81532 576.106,111.43 C577.339339,114.04468 578.99199,116.31399 581.064,118.238 C583.13601,120.16201 585.528653,121.666661 588.242,122.752 C590.955347,123.837339 593.841318,124.38 596.9,124.38 C601.636024,124.38 605.730649,123.34401 609.184,121.272 C612.637351,119.19999 615.350657,116.684015 617.324,113.724 L627.092,121.568 C623.342648,126.501358 618.927359,130.127322 613.846,132.446 C608.764641,134.764678 603.116031,135.924 596.9,135.924 C591.571973,135.924 586.638689,135.036009 582.1,133.26 C577.561311,131.483991 573.664016,128.992683 570.408,125.786 C567.151984,122.579317 564.586676,118.706689 562.712,114.168 C560.837324,109.629311 559.9,104.597361 559.9,99.072 C559.9,93.6453062 560.812658,88.6380229 562.638,84.05 C564.463342,79.4619771 567.003984,75.5400163 570.26,72.284 C573.516016,69.0279837 577.363978,66.4873425 581.804,64.662 C586.244022,62.8366575 591.029308,61.924 596.16,61.924 C601.290692,61.924 605.952646,62.7626583 610.146,64.44 C614.339354,66.1173417 617.891319,68.5346509 620.802,71.692 C623.712681,74.8493491 625.957325,78.6726442 627.536,83.162 C629.114675,87.6513558 629.904,92.7079719 629.904,98.332 Z M615.844,92.708 C615.745333,89.9453195 615.276671,87.3553454 614.438,84.938 C613.599329,82.5206546 612.366008,80.4240089 610.738,78.648 C609.109992,76.8719911 607.087345,75.4660052 604.67,74.43 C602.252655,73.3939948 599.416016,72.876 596.16,72.876 C593.199985,72.876 590.41268,73.3939948 587.798,74.43 C585.18332,75.4660052 582.91401,76.8719911 580.99,78.648 C579.06599,80.4240089 577.487339,82.5206546 576.254,84.938 C575.02066,87.3553454 574.305334,89.9453195 574.108,92.708 L615.844,92.708 Z M649.292,78.944 C649.292,77.069324 649.242667,74.6520148 649.144,71.692 C649.045333,68.7319852 648.897334,66.1173447 648.7,63.848 L661.872,63.848 C662.069334,65.6240089 662.217333,67.6713217 662.316,69.99 C662.414667,72.3086783 662.464,74.2079926 662.464,75.688 L662.908,75.688 C664.881343,71.5439793 667.767314,68.2140126 671.566,65.698 C675.364686,63.1819874 679.631976,61.924 684.368,61.924 C686.538678,61.924 688.363993,62.1213314 689.844,62.516 L689.252,75.392 C687.278657,74.8986642 685.157345,74.652 682.888,74.652 C679.533317,74.652 676.622679,75.2686605 674.156,76.502 C671.689321,77.7353395 669.642008,79.3879896 668.014,81.46 C666.385992,83.5320104 665.177337,85.9246531 664.388,88.638 C663.598663,91.3513469 663.204,94.1879852 663.204,97.148 L663.204,134 L649.292,134 L649.292,78.944 Z M716.928,134 L703.016,134 L703.016,63.848 L716.928,63.848 L716.928,134 Z M719.296,38.54 C719.296,41.1053462 718.383342,43.2266583 716.558,44.904 C714.732658,46.5813417 712.537346,47.42 709.972,47.42 C707.406654,47.42 705.236009,46.5566753 703.46,44.83 C701.683991,43.1033247 700.796,41.006679 700.796,38.54 C700.796,35.9746538 701.683991,33.8286753 703.46,32.102 C705.236009,30.3753247 707.406654,29.512 709.972,29.512 C712.537346,29.512 714.732658,30.3753247 716.558,32.102 C718.383342,33.8286753 719.296,35.9746538 719.296,38.54 Z M791.224,75.244 L751.264,122.308 L792.852,122.308 L792.852,134 L734.096,134 L734.096,122.604 L773.76,75.244 L736.02,75.244 L736.02,63.848 L791.224,63.848 L791.224,75.244 Z M874.992,98.332 L874.992,100.7 C874.992,101.489337 874.942667,102.278663 874.844,103.068 L819.196,103.068 C819.294667,106.028015 819.96066,108.81532 821.194,111.43 C822.427339,114.04468 824.07999,116.31399 826.152,118.238 C828.22401,120.16201 830.616653,121.666661 833.33,122.752 C836.043347,123.837339 838.929318,124.38 841.988,124.38 C846.724024,124.38 850.818649,123.34401 854.272,121.272 C857.725351,119.19999 860.438657,116.684015 862.412,113.724 L872.18,121.568 C868.430648,126.501358 864.015359,130.127322 858.934,132.446 C853.852641,134.764678 848.204031,135.924 841.988,135.924 C836.659973,135.924 831.726689,135.036009 827.188,133.26 C822.649311,131.483991 818.752016,128.992683 815.496,125.786 C812.239984,122.579317 809.674676,118.706689 807.8,114.168 C805.925324,109.629311 804.988,104.597361 804.988,99.072 C804.988,93.6453062 805.900658,88.6380229 807.726,84.05 C809.551342,79.4619771 812.091984,75.5400163 815.348,72.284 C818.604016,69.0279837 822.451978,66.4873425 826.892,64.662 C831.332022,62.8366575 836.117308,61.924 841.248,61.924 C846.378692,61.924 851.040646,62.7626583 855.234,64.44 C859.427354,66.1173417 862.979319,68.5346509 865.89,71.692 C868.800681,74.8493491 871.045325,78.6726442 872.624,83.162 C874.202675,87.6513558 874.992,92.7079719 874.992,98.332 Z M860.932,92.708 C860.833333,89.9453195 860.364671,87.3553454 859.526,84.938 C858.687329,82.5206546 857.454008,80.4240089 855.826,78.648 C854.197992,76.8719911 852.175345,75.4660052 849.758,74.43 C847.340655,73.3939948 844.504016,72.876 841.248,72.876 C838.287985,72.876 835.50068,73.3939948 832.886,74.43 C830.27132,75.4660052 828.00201,76.8719911 826.078,78.648 C824.15399,80.4240089 822.575339,82.5206546 821.342,84.938 C820.10866,87.3553454 819.393334,89.9453195 819.196,92.708 L860.932,92.708 Z" id="fasterize-7" sketch:type="MSShapeGroup"></path>
            </g>
        </g>
    </g>
</svg>